<svg width="140" height="22" viewBox="0 0 140 22" fill="none" xmlns="http://www.w3.org/2000/svg">
<g clip-path="url(#clip0_26_5485)">
<path d="M42.0837 0.993974C42.0837 0.837399 42.148 0.680817 42.2765 0.555558C42.3729 0.430298 42.5335 0.367676 42.7263 0.367676H47.0313C47.1919 0.367676 47.3204 0.430298 47.4811 0.555558C47.6417 0.680817 47.706 0.837399 47.706 0.993974V7.72668H54.9345V0.993974C54.9345 0.837399 54.9988 0.680817 55.1273 0.555558C55.2558 0.430298 55.4164 0.367676 55.6092 0.367676H59.85C60.0427 0.367676 60.2033 0.430306 60.364 0.52425C60.4925 0.618195 60.5889 0.774777 60.5889 0.962667V20.7537C60.5889 20.9729 60.5246 21.1295 60.3961 21.2234C60.2676 21.3173 60.107 21.38 59.9142 21.38H55.6413C55.4486 21.38 55.2879 21.3173 55.1594 21.2234C55.0309 21.1295 54.9667 20.9729 54.9667 20.7537V12.7058H47.7381V20.7537C47.7381 20.9416 47.6738 21.0981 47.5453 21.2234C47.4168 21.3173 47.2241 21.38 47.0313 21.38H42.7584C42.3408 21.38 42.148 21.1921 42.148 20.8163V0.993974H42.0837Z" fill="black"/>
<path d="M69.9058 12.9876C69.9058 13.6765 70.0022 14.2715 70.195 14.7725C70.3877 15.2736 70.6447 15.6493 70.966 15.9625C71.2873 16.2756 71.6728 16.4949 72.0904 16.6201C72.5081 16.7767 72.9579 16.8393 73.4398 16.8393C73.9217 16.8393 74.3715 16.7454 74.8212 16.5888C75.2389 16.4322 75.6244 16.1817 75.9457 15.8372C76.2669 15.5241 76.524 15.117 76.7167 14.616C76.9095 14.1462 77.0059 13.5826 77.0059 12.9563V0.993974C77.0059 0.837399 77.0701 0.680817 77.1986 0.555558C77.3271 0.430298 77.4878 0.367676 77.6805 0.367676H81.9213C82.1462 0.367676 82.3068 0.430298 82.4353 0.555558C82.5638 0.680817 82.6281 0.837399 82.6281 0.993974V12.9249C82.6281 14.5846 82.3711 15.9625 81.8892 17.0898C81.3751 18.2172 80.7326 19.1253 79.8652 19.8142C79.0299 20.5032 78.0339 20.9729 76.9416 21.286C75.8493 21.5679 74.6606 21.7244 73.4398 21.7244C72.219 21.7244 71.0624 21.5679 69.9379 21.2547C68.8135 20.9416 67.8497 20.4405 67.0144 19.7516C66.1791 19.0627 65.5044 18.1545 64.9904 17.0272C64.4764 15.8999 64.2515 14.5533 64.2515 12.9249V0.993974C64.2515 0.837399 64.3157 0.680817 64.4121 0.555558C64.5085 0.430298 64.6691 0.367676 64.8298 0.367676H69.1669C69.2954 0.367676 69.456 0.430298 69.6167 0.555558C69.7773 0.680817 69.8416 0.837399 69.8416 0.993974V12.9876H69.9058Z" fill="black"/>
<path d="M85.3586 0.962667C85.3586 0.774777 85.4229 0.618195 85.5514 0.52425C85.6799 0.398991 85.8405 0.367676 86.0333 0.367676H101.647C101.808 0.367676 101.968 0.430306 102.097 0.52425C102.225 0.618195 102.322 0.77477 102.322 0.993974V4.50125C102.322 4.65782 102.257 4.8457 102.129 5.00228C102 5.15885 101.84 5.22149 101.615 5.22149H96.6031V20.7224C96.6031 20.8789 96.5388 21.0355 96.4103 21.1921C96.2818 21.3173 96.1212 21.4113 95.9284 21.4113H91.6877C91.527 21.4113 91.3664 21.3487 91.2379 21.2234C91.0772 21.0981 91.013 20.9416 91.013 20.7537V5.22149H86.0333C85.8405 5.22149 85.6799 5.15886 85.5514 5.0336C85.4229 4.90834 85.3586 4.72045 85.3586 4.50125V0.962667Z" fill="black"/>
<path d="M105.085 0.99397C105.085 0.806081 105.149 0.649506 105.245 0.524247C105.342 0.398987 105.502 0.336365 105.727 0.336365H120.12C120.345 0.336365 120.506 0.398987 120.602 0.524247C120.731 0.649506 120.763 0.806073 120.763 1.02528V4.53255C120.763 4.68913 120.698 4.8457 120.602 5.00227C120.474 5.15885 120.313 5.22148 120.088 5.22148H110.675V8.72875H117.936C118.128 8.72875 118.257 8.76006 118.385 8.854C118.514 8.94795 118.578 9.07322 118.578 9.29242V12.3613C118.578 12.4865 118.514 12.6118 118.417 12.7371C118.321 12.8623 118.16 12.9249 117.968 12.9249H110.707V16.5575H120.474C120.923 16.5575 121.116 16.7767 121.116 17.2151V20.785C121.116 20.8789 121.084 20.9729 120.988 21.0355C120.955 21.286 120.763 21.4426 120.377 21.4426H105.695C105.502 21.4426 105.342 21.38 105.245 21.286C105.117 21.1921 105.085 21.0355 105.085 20.8163V0.99397Z" fill="black"/>
<path d="M139.557 1.87078C139.718 1.96472 139.846 2.08998 139.91 2.24656C139.975 2.40313 139.975 2.59103 139.878 2.77892L137.436 6.16092C137.34 6.3175 137.212 6.41145 137.083 6.44276C136.955 6.47408 136.826 6.41144 136.633 6.3175C136.151 5.97303 135.637 5.69121 135.059 5.50332C134.481 5.31543 133.87 5.22148 133.26 5.22148C132.457 5.22148 131.75 5.37806 131.075 5.65989C130.401 5.94173 129.822 6.34882 129.34 6.84985C128.859 7.35089 128.473 7.94588 128.216 8.63481C127.959 9.32374 127.798 10.044 127.798 10.8269C127.798 11.6097 127.927 12.33 128.216 12.9876C128.473 13.6765 128.859 14.2402 129.34 14.7412C129.822 15.2423 130.401 15.6493 131.075 15.9312C131.75 16.213 132.489 16.3696 133.26 16.3696C133.903 16.3696 134.513 16.2756 135.091 16.0878C135.67 15.8999 136.184 15.618 136.665 15.2736C136.826 15.1796 136.987 15.117 137.115 15.1483C137.244 15.1796 137.34 15.2422 137.469 15.3988L139.942 18.8748C140.039 19.094 140.071 19.2505 139.975 19.4071C139.91 19.5637 139.782 19.6577 139.621 19.7516C138.722 20.3466 137.726 20.8163 136.698 21.1294C135.637 21.4426 134.545 21.6305 133.388 21.6305C132.36 21.6305 131.364 21.5052 130.433 21.2547C129.501 21.0042 128.602 20.6284 127.798 20.1587C126.963 19.689 126.224 19.1253 125.55 18.4677C124.875 17.8101 124.297 17.0898 123.815 16.2756C123.333 15.4928 122.947 14.6159 122.69 13.7078C122.433 12.7997 122.305 11.8289 122.305 10.8269C122.305 9.82477 122.433 8.85401 122.69 7.94588C122.947 7.03774 123.333 6.16093 123.815 5.34674C124.297 4.53256 124.875 3.81231 125.55 3.1547C126.224 2.49709 126.963 1.93341 127.798 1.46369C128.634 0.993963 129.501 0.649499 130.433 0.367665C131.364 0.0858309 132.36 -0.00811768 133.388 -0.00811768C134.545 -0.00811768 135.637 0.148457 136.665 0.461606C137.694 0.774755 138.657 1.27579 139.557 1.87078Z" fill="black"/>
<path d="M17.9563 4.93962L14.84 0.367653C14.7115 0.179764 14.4866 0.0545044 14.2296 0.0545044H7.51505C7.25803 0.0545044 7.03315 0.179764 6.90464 0.367653L0.125847 10.2945C-0.0347876 10.545 -0.0347876 10.8581 0.125847 11.0774L6.90464 20.9729C7.03315 21.1607 7.25803 21.286 7.51505 21.286H13.2336C13.8119 21.286 14.1653 20.6597 13.8441 20.19L7.25804 10.6703L10.9205 5.40935L13.9404 9.76212C14.2296 10.1692 14.8721 10.1692 15.1613 9.76212L17.9563 5.72249C18.1169 5.47197 18.1169 5.15883 17.9563 4.93962Z" fill="black"/>
<path d="M36.365 10.2632L29.5863 0.367653C29.4578 0.179764 29.2329 0.0545044 28.9758 0.0545044H23.2572C22.679 0.0545044 22.3256 0.680802 22.6468 1.15053L29.2329 10.6703L25.5704 15.9625L22.4862 11.4844C22.1971 11.0774 21.5545 11.0774 21.2654 11.4844L18.4703 15.5241C18.3097 15.7746 18.3097 16.0877 18.4703 16.3069L21.683 20.9729C21.8115 21.1607 22.0364 21.286 22.2934 21.286H29.008C29.265 21.286 29.4899 21.1607 29.6184 20.9729L36.3972 11.0774C36.5257 10.8268 36.5257 10.5137 36.365 10.2632Z" fill="black"/>
</g>
<defs>
<clipPath id="clip0_26_5485">
<rect width="140" height="21.7" fill="white"/>
</clipPath>
</defs>
</svg>
